<svg width="200" height="201" viewBox="0 0 200 201" fill="none" xmlns="http://www.w3.org/2000/svg">
<circle cx="100" cy="100" r="100" fill="#8581ED"/>
<path d="M20.9601 119.84C20.8801 119.92 20.8001 119.96 20.7201 119.96C20.4801 119.96 20.3601 119.6 20.3601 118.88C20.3601 118.4 20.4801 117.92 20.7201 117.44C21.0401 116.88 21.6001 116.56 22.4001 116.48C24.6401 116.32 26.7601 115.56 28.7601 114.2C30.7601 112.84 32.5201 111.24 34.0401 109.4C35.5601 107.48 36.6401 105.68 37.2801 104L48.3201 76.4C49.8401 72.64 51.5601 69 53.4801 65.48C55.4801 61.96 58.0001 59.08 61.0401 56.84C64.1601 54.6 68.0801 53.48 72.8001 53.48C74.6401 53.48 76.4801 53.72 78.3201 54.2C80.2401 54.6 81.8401 55.28 83.1201 56.24C84.4001 57.2 85.0401 58.56 85.0401 60.32C85.0401 60.56 85.0401 60.8 85.0401 61.04C85.0401 61.28 85.0001 61.52 84.9201 61.76C84.6801 63.04 83.9601 64.32 82.7601 65.6C81.6401 66.88 80.7601 68.48 80.1201 70.4C80.0401 70.96 79.6801 71.24 79.0401 71.24C78.4801 71.24 78.3601 70.88 78.6801 70.16C79.3201 69.2 79.8001 68.08 80.1201 66.8C80.5201 65.44 80.7201 64.08 80.7201 62.72C80.7201 60.64 80.2401 58.8 79.2801 57.2C78.3201 55.6 76.6801 54.8 74.3601 54.8C72.2801 54.8 70.1601 55.4 68.0001 56.6C65.8401 57.8 63.9601 59.88 62.3601 62.84L40.1601 103.76C38.0801 107.6 36.1601 110.36 34.4001 112.04C32.7201 113.64 31.3201 114.64 30.2001 115.04H59.1201C62.9601 115.04 66.5201 114.92 69.8001 114.68C73.0801 114.44 75.0801 113.84 75.8001 112.88C76.6001 111.76 77.0001 110.56 77.0001 109.28C77.0001 107.28 75.9201 105.8 73.7601 104.84C73.5201 104.68 73.4001 104.52 73.4001 104.36C73.4001 104.2 73.4801 104.04 73.6401 103.88C73.8801 103.72 74.1601 103.72 74.4801 103.88C75.2001 104.2 76.0401 104.92 77.0001 106.04C78.0401 107.08 79.0001 108.24 79.8801 109.52C80.7601 110.72 81.3201 111.68 81.5601 112.4C81.8001 113.12 81.9201 113.84 81.9201 114.56C81.9201 117.84 79.0801 119.48 73.4001 119.48C68.9201 119.48 64.1201 119.32 59.0001 119C53.8801 118.68 48.8001 118.32 43.7601 117.92C38.8001 117.52 34.1201 117.24 29.7201 117.08C28.0401 116.92 26.3601 117.16 24.6801 117.8C23.0801 118.36 21.8401 119.04 20.9601 119.84Z" fill="#0D0B5B"/>
<path d="M99.3933 155.22C98.7889 155.22 98.2977 155.107 97.9199 154.88C97.5422 154.729 97.391 154.351 97.4666 153.747C97.4666 153.52 97.5799 153.18 97.8066 152.727C98.0333 152.273 98.1843 151.933 98.2599 151.707C98.6377 150.649 98.9777 149.591 99.2799 148.533C99.5822 147.4 99.8843 146.342 100.187 145.36C101.244 141.204 102.227 137.087 103.133 133.007C104.04 128.851 104.758 124.696 105.287 120.54C105.589 118.122 105.967 114.873 106.42 110.793C106.873 106.638 107.1 102.633 107.1 98.78C107.1 97.2689 107.062 95.8711 106.987 94.5867C106.911 93.2267 106.722 92.0177 106.42 90.96C103.927 90.96 101.433 90.96 98.9399 90.96C96.4466 90.8844 93.991 90.8467 91.5733 90.8467C90.4399 90.8467 88.8533 90.9223 86.8133 91.0733C84.8489 91.2244 82.8089 91.5644 80.6933 92.0933C78.6533 92.6223 76.9533 93.4911 75.5933 94.7C74.2333 95.9089 73.6289 97.5333 73.7799 99.5733C73.8555 100.178 74.0822 101.009 74.46 102.067C74.8377 103.049 75.1022 103.653 75.2533 103.88L74.0066 104.787C73.5533 103.956 72.9866 103.011 72.3066 101.953C71.6266 100.82 71.0222 99.7244 70.4933 98.6667C69.9643 97.6089 69.6622 96.8156 69.5866 96.2867C69.511 95.5311 69.5489 94.5489 69.7 93.34C69.851 92.1311 70.4555 91.0733 71.5133 90.1667C72.6466 89.1844 74.1955 88.5423 76.1599 88.24C78.1999 87.9377 80.2777 87.7867 82.3933 87.7867C84.4333 87.7867 86.3977 87.8623 88.2866 88.0133C90.1755 88.1644 91.7243 88.24 92.9333 88.24C92.9333 88.24 93.8022 88.24 95.5399 88.24C97.2777 88.24 99.4689 88.24 102.113 88.24C104.833 88.1644 107.704 88.1267 110.727 88.1267C113.749 88.1267 116.507 88.1267 119 88.1267L116.62 91.0733H108.687C109.82 93.1889 110.538 96.1356 110.84 99.9133C111.218 103.691 111.407 107.318 111.407 110.793C111.407 112.229 111.407 113.589 111.407 114.873C111.407 116.158 111.369 117.291 111.293 118.273C111.142 121.824 110.651 126.093 109.82 131.08C108.989 136.067 107.931 140.789 106.647 145.247C109.744 140.864 113.522 135.651 117.98 129.607C122.513 123.562 127.689 117.291 133.507 110.793C139.4 104.22 145.898 97.9867 153 92.0933C154.436 90.8844 156.324 89.5244 158.667 88.0133C161.009 86.5023 163.503 85.2177 166.147 84.16C168.791 83.0267 171.284 82.46 173.627 82.46C175.817 82.46 177.329 82.8377 178.16 83.5933C179.067 84.3489 179.52 85.3311 179.52 86.54C179.52 87.9756 179.067 89.5623 178.16 91.3C177.329 93.0377 176.687 94.4733 176.233 95.6067C176.157 95.8333 175.817 95.9844 175.213 96.06C174.609 96.1356 174.344 96.0223 174.42 95.72C174.571 95.1156 174.723 94.3977 174.873 93.5667C175.1 92.66 175.213 91.7533 175.213 90.8467C175.213 89.6377 174.987 88.5423 174.533 87.56C174.08 86.5777 173.211 86.0111 171.927 85.86C171.7 85.7844 171.473 85.7467 171.247 85.7467C171.02 85.7467 170.793 85.7467 170.567 85.7467C168.376 85.7467 165.996 86.5023 163.427 88.0133C160.933 89.4489 158.024 91.4889 154.7 94.1333C148.353 99.1956 142.309 104.787 136.567 110.907C130.9 116.951 125.46 123.298 120.247 129.947C117.527 133.347 114.882 136.784 112.313 140.26C109.744 143.736 107.364 147.362 105.173 151.14C105.022 151.442 104.871 151.782 104.72 152.16C104.644 152.613 104.531 152.953 104.38 153.18C104.229 153.331 103.776 153.558 103.02 153.86C102.264 154.238 101.509 154.54 100.753 154.767C100.073 155.069 99.6199 155.22 99.3933 155.22Z" fill="#0D0B5B"/>
</svg>
